<svg width="24" height="24" viewBox="0 0 24 24" fill="none" xmlns="http://www.w3.org/2000/svg">
<path d="M12.4284 5.63275C9.14364 5.63275 6.4927 8.28374 6.4927 11.5685C6.4927 14.8533 9.14364 17.5043 12.4284 17.5043C15.7131 17.5043 18.364 14.8533 18.364 11.5685C18.364 8.28374 15.7131 5.63275 12.4284 5.63275ZM12.4284 15.4263C10.3041 15.4263 8.57062 13.6928 8.57062 11.5685C8.57062 9.44427 10.3041 7.71071 12.4284 7.71071C14.5526 7.71071 16.2861 9.44427 16.2861 11.5685C16.2861 13.6928 14.5526 15.4263 12.4284 15.4263ZM18.6071 4.00628C17.8402 4.00628 17.2209 4.62561 17.2209 5.39255C17.2209 6.15948 17.8402 6.77881 18.6071 6.77881C19.374 6.77881 19.9934 6.16237 19.9934 5.39255C19.9936 5.21043 19.9579 5.03007 19.8883 4.86177C19.8187 4.69348 19.7166 4.54057 19.5879 4.4118C19.4591 4.28302 19.3062 4.18092 19.1379 4.11134C18.9696 4.04175 18.7892 4.00605 18.6071 4.00628ZM23.9987 11.5685C23.9987 9.97099 24.0132 8.38793 23.9235 6.79328C23.8338 4.94107 23.4112 3.29723 22.0568 1.94279C20.6995 0.585466 19.0586 0.165824 17.2064 0.0761071C15.6089 -0.0136097 14.0259 0.000860829 12.4313 0.000860829C10.8338 0.000860829 9.25072 -0.0136097 7.6561 0.0761071C5.80392 0.165824 4.16011 0.58836 2.8057 1.94279C1.4484 3.30012 1.02877 4.94107 0.939051 6.79328C0.849336 8.39082 0.863806 9.97389 0.863806 11.5685C0.863806 13.1632 0.849336 14.7491 0.939051 16.3438C1.02877 18.196 1.4513 19.8398 2.8057 21.1943C4.163 22.5516 5.80392 22.9712 7.6561 23.0609C9.25361 23.1507 10.8366 23.1362 12.4313 23.1362C14.0288 23.1362 15.6118 23.1507 17.2064 23.0609C19.0586 22.9712 20.7024 22.5487 22.0568 21.1943C23.4141 19.8369 23.8338 18.196 23.9235 16.3438C24.0161 14.7491 23.9987 13.1661 23.9987 11.5685ZM21.452 18.3928C21.2407 18.9195 20.986 19.3131 20.578 19.7183C20.1699 20.1263 19.7792 20.381 19.2525 20.5923C17.7302 21.1972 14.1156 21.0611 12.4284 21.0611C10.7411 21.0611 7.1236 21.1972 5.60134 20.5952C5.07463 20.3839 4.68104 20.1292 4.27587 19.7212C3.86781 19.3131 3.61314 18.9224 3.40187 18.3957C2.79991 16.8705 2.93593 13.2558 2.93593 11.5685C2.93593 9.88128 2.79991 6.26367 3.40187 4.74138C3.61314 4.21465 3.86781 3.82106 4.27587 3.41588C4.68393 3.01071 5.07463 2.75314 5.60134 2.54187C7.1236 1.9399 10.7411 2.07592 12.4284 2.07592C14.1156 2.07592 17.7331 1.9399 19.2554 2.54187C19.7821 2.75314 20.1757 3.00782 20.5809 3.41588C20.9889 3.82395 21.2436 4.21465 21.4549 4.74138C22.0568 6.26367 21.9208 9.88128 21.9208 11.5685C21.9208 13.2558 22.0568 16.8705 21.452 18.3928Z" fill="#DA5C5C"/>
</svg>
